# xmcd CD database file
#
# Track frame offsets:
#	150
#	14315
#	28750
#	44357
#	56535
#	68295
#	77545
#	91717
#	108555
#	119115
#	134645
#	151160
#	163965
#	175775
#	185607
#	198032
#	209540
#	223197
#	238657
#	249662
#	256180
#
# Disc length: 3575 seconds
#
# Revision: 0
# Processed by: cddbd v1.5.2PL0 Copyright (c) Steve Scherf et al.
# Submitted via: CDex 1.70beta2
#
DISCID=260df515
DTITLE=Vlasta Pruchova - 20 x
DYEAR=1997
DGENRE=Jazz
TTITLE0=Docela vsedni obycejny den
TTITLE1=Bubenicek
TTITLE2=Kdopak vi jak
TTITLE3=Nedelni vlacek
TTITLE4=Blues pro maleho chlapce
TTITLE5=Pisnicka do kapsy
TTITLE6=Na pocatku bylo blues
TTITLE7=Rozmarne stvoreni
TTITLE8=Dudy a basa
TTITLE9=Trpaslici
TTITLE10=Vsechny hvezdy na nebi
TTITLE11=Nas dedecek
TTITLE12=Vsechno je proste
TTITLE13=Ztraceny klicek
TTITLE14=Klidna plavba
TTITLE15=Prvni vychazka
TTITLE16=Az nam bude dvakrat tolik
TTITLE17=Cerna ukolebavka
TTITLE18=Písnicka na konec
TTITLE19=Four brothers
TTITLE20=The man in love
EXTD=YEAR: 1997
EXTT0=
EXTT1=
EXTT2=
EXTT3=
EXTT4=
EXTT5=
EXTT6=
EXTT7=
EXTT8=
EXTT9=
EXTT10=
EXTT11=
EXTT12=
EXTT13=
EXTT14=
EXTT15=
EXTT16=
EXTT17=
EXTT18=
EXTT19=
EXTT20=
PLAYORDER=
